HIERARCHY
ROOT Hips
{
    OFFSET 0.000000 0.000000 0.000000
    CHANNELS 6 Xposition Yposition Zposition Zrotation Yrotation Xrotation
    JOINT Chest
    {
        OFFSET 0.000000 1.634758 -0.000000
        CHANNELS 3 Zrotation Yrotation Xrotation
        JOINT Chest2
        {
            OFFSET 0.000000 2.197341 0.000000
            CHANNELS 3 Zrotation Yrotation Xrotation
            JOINT Neck
            {
                OFFSET 0.000000 0.961544 0.000000
                CHANNELS 3 Zrotation Yrotation Xrotation
                JOINT Head
                {
                    OFFSET 0.000000 0.632542 -0.032565
                    CHANNELS 3 Zrotation Yrotation Xrotation
                    End Site
                    {
                        OFFSET -0.000001 0.439502 2.922845
                    }
                }
            }
            JOINT LeftCollar
            {
                OFFSET 0.167536 0.778237 -0.168280
                CHANNELS 3 Zrotation Yrotation Xrotation
                JOINT LeftShoulder
                {
                    OFFSET 0.831514 -0.002900 0.006458
                    CHANNELS 3 Zrotation Yrotation Xrotation
                    JOINT LeftElbow
                    {
                        OFFSET 2.272872 -0.026639 0.059314
                        CHANNELS 3 Zrotation Yrotation Xrotation
                        JOINT LeftWrist
                        {
                            OFFSET 2.081982 -0.024402 0.054333
                            CHANNELS 3 Zrotation Yrotation Xrotation
                            JOINT LeftHandThumb1
                            {
                                OFFSET 0.218903 -0.128645 0.283837
                                CHANNELS 3 Zrotation Yrotation Xrotation
                                JOINT LeftHandThumb2
                                {
                                    OFFSET 0.137157 -0.025101 0.077902
                                    CHANNELS 3 Zrotation Yrotation Xrotation
                                    JOINT LeftHandThumb3
                                    {
                                        OFFSET 0.163592 -0.061323 0.054922
                                        CHANNELS 3 Zrotation Yrotation Xrotation
                                        End Site
                                        {
                                            OFFSET 0.242814 -0.064473 0.093387
                                        }
                                    }
                                }
                            }
                            JOINT LeftHandFore1
                            {
                                OFFSET 0.767340 -0.016076 0.196678
                                CHANNELS 3 Zrotation Yrotation Xrotation
                                JOINT LeftHandFore2
                                {
                                    OFFSET 0.194910 -0.087741 0.036151
                                    CHANNELS 3 Zrotation Yrotation Xrotation
                                    JOINT LeftHandFore3
                                    {
                                        OFFSET 0.092875 -0.089218 0.013319
                                        CHANNELS 3 Zrotation Yrotation Xrotation
                                        End Site
                                        {
                                            OFFSET 0.097281 -0.166262 0.016137
                                        }
                                    }
                                }
                            }
                            JOINT LeftHandMiddle1
                            {
                                OFFSET 0.709887 -0.008320 0.018526
                                CHANNELS 3 Zrotation Yrotation Xrotation
                                JOINT LeftHandMiddle2
                                {
                                    OFFSET 0.224654 -0.096229 0.018290
                                    CHANNELS 3 Zrotation Yrotation Xrotation
                                    JOINT LeftHandMiddle3
                                    {
                                        OFFSET 0.112279 -0.093619 0.003456
                                        CHANNELS 3 Zrotation Yrotation Xrotation
                                        End Site
                                        {
                                            OFFSET 0.124215 -0.200489 0.002258
                                        }
                                    }
                                }
                            }
                            JOINT LeftHandRing1
                            {
                                OFFSET 0.743817 -0.005823 -0.153668
                                CHANNELS 3 Zrotation Yrotation Xrotation
                                JOINT LeftHandRing2
                                {
                                    OFFSET 0.318812 -0.149696 -0.026139
                                    CHANNELS 3 Zrotation Yrotation Xrotation
                                    JOINT LeftHandRing3
                                    {
                                        OFFSET 0.098079 -0.093764 -0.013936
                                        CHANNELS 3 Zrotation Yrotation Xrotation
                                        End Site
                                        {
                                            OFFSET 0.052405 -0.107176 -0.013671
                                        }
                                    }
                                }
                            }
                            JOINT LeftHandLittle1
                            {
                                OFFSET 0.689408 -0.053302 -0.308304
                                CHANNELS 3 Zrotation Yrotation Xrotation
                                JOINT LeftHandLittle2
                                {
                                    OFFSET 0.175349 -0.075526 -0.040032
                                    CHANNELS 3 Zrotation Yrotation Xrotation
                                    JOINT LeftHandLittle3
                                    {
                                        OFFSET 0.079813 -0.085301 -0.029154
                                        CHANNELS 3 Zrotation Yrotation Xrotation
                                        End Site
                                        {
                                            OFFSET 0.098803 -0.155258 -0.049208
                                        }
                                    }
                                }
                            }
                        }
                    }
                }
            }
            JOINT RightCollar
            {
                OFFSET -0.167536 0.778237 -0.168280
                CHANNELS 3 Zrotation Yrotation Xrotation
                JOINT RightShoulder
                {
                    OFFSET -0.831514 -0.002900 0.006457
                    CHANNELS 3 Zrotation Yrotation Xrotation
                    JOINT RightElbow
                    {
                        OFFSET -2.272872 -0.026639 0.059313
                        CHANNELS 3 Zrotation Yrotation Xrotation
                        JOINT RightWrist
                        {
                            OFFSET -2.081982 -0.024402 0.054331
                            CHANNELS 3 Zrotation Yrotation Xrotation
                            JOINT RightHandThumb1
                            {
                                OFFSET -0.218911 -0.128571 0.283837
                                CHANNELS 3 Zrotation Yrotation Xrotation
                                JOINT RightHandThumb2
                                {
                                    OFFSET -0.137157 -0.025101 0.077902
                                    CHANNELS 3 Zrotation Yrotation Xrotation
                                    JOINT RightHandThumb3
                                    {
                                        OFFSET -0.167455 -0.054447 0.050337
                                        CHANNELS 3 Zrotation Yrotation Xrotation
                                        End Site
                                        {
                                            OFFSET -0.236691 -0.075431 0.100619
                                        }
                                    }
                                }
                            }
                            JOINT RightHandFore1
                            {
                                OFFSET -0.767344 -0.015991 0.196679
                                CHANNELS 3 Zrotation Yrotation Xrotation
                                JOINT RightHandFore2
                                {
                                    OFFSET -0.194933 -0.087698 0.036149
                                    CHANNELS 3 Zrotation Yrotation Xrotation
                                    JOINT RightHandFore3
                                    {
                                        OFFSET -0.090640 -0.087944 0.028502
                                        CHANNELS 3 Zrotation Yrotation Xrotation
                                        End Site
                                        {
                                            OFFSET -0.093835 -0.164335 0.039444
                                        }
                                    }
                                }
                            }
                            JOINT RightHandMiddle1
                            {
                                OFFSET -0.709887 -0.008302 0.018525
                                CHANNELS 3 Zrotation Yrotation Xrotation
                                JOINT RightHandMiddle2
                                {
                                    OFFSET -0.224640 -0.096249 0.018292
                                    CHANNELS 3 Zrotation Yrotation Xrotation
                                    JOINT RightHandMiddle3
                                    {
                                        OFFSET -0.111334 -0.092707 0.019863
                                        CHANNELS 3 Zrotation Yrotation Xrotation
                                        End Site
                                        {
                                            OFFSET -0.122378 -0.198673 0.034395
                                        }
                                    }
                                }
                            }
                            JOINT RightHandRing1
                            {
                                OFFSET -0.743819 -0.005785 -0.153669
                                CHANNELS 3 Zrotation Yrotation Xrotation
                                JOINT RightHandRing2
                                {
                                    OFFSET -0.318823 -0.149673 -0.026138
                                    CHANNELS 3 Zrotation Yrotation Xrotation
                                    JOINT RightHandRing3
                                    {
                                        OFFSET -0.098490 -0.094126 -0.006716
                                        CHANNELS 3 Zrotation Yrotation Xrotation
                                        End Site
                                        {
                                            OFFSET -0.053032 -0.107703 -0.002821
                                        }
                                    }
                                }
                            }
                            JOINT RightHandLittle1
                            {
                                OFFSET -0.689403 -0.053298 -0.308303
                                CHANNELS 3 Zrotation Yrotation Xrotation
                                JOINT RightHandLittle2
                                {
                                    OFFSET -0.175354 -0.075522 -0.040033
                                    CHANNELS 3 Zrotation Yrotation Xrotation
                                    JOINT RightHandLittle3
                                    {
                                        OFFSET -0.081270 -0.086376 -0.020735
                                        CHANNELS 3 Zrotation Yrotation Xrotation
                                        End Site
                                        {
                                            OFFSET -0.102810 -0.158268 -0.025883
                                        }
                                    }
                                }
                            }
                        }
                    }
                }
            }
        }
    }
    JOINT LeftHip
    {
        OFFSET 0.685143 0.673822 -0.044491
        CHANNELS 3 Zrotation Yrotation Xrotation
        JOINT LeftKnee
        {
            OFFSET 0.085364 -3.750208 0.017676
            CHANNELS 3 Zrotation Yrotation Xrotation
            JOINT LeftAnkle
            {
                OFFSET 0.094583 -4.155206 0.019585
                CHANNELS 3 Zrotation Yrotation Xrotation
                JOINT LeftToe
                {
                    OFFSET -0.000000 -0.395925 0.621478
                    CHANNELS 3 Zrotation Yrotation Xrotation
                    End Site
                    {
                        OFFSET -0.000000 -0.077878 0.321152
                    }
                }
            }
        }
    }
    JOINT RightHip
    {
        OFFSET -0.685143 0.673822 -0.044492
        CHANNELS 3 Zrotation Yrotation Xrotation
        JOINT RightKnee
        {
            OFFSET -0.085364 -3.750208 0.017677
            CHANNELS 3 Zrotation Yrotation Xrotation
            JOINT RightAnkle
            {
                OFFSET -0.094583 -4.155206 0.019585
                CHANNELS 3 Zrotation Yrotation Xrotation
                JOINT RightToe
                {
                    OFFSET -0.000000 -0.395925 0.621478
                    CHANNELS 3 Zrotation Yrotation Xrotation
                    End Site
                    {
                        OFFSET -0.000000 -0.077878 0.321152
                    }
                }
            }
        }
    }
}
MOTION
Frames: 6
Frame Time: 0.033333
-0.009900 9.107891 -0.859208 -179.463531 -1.737857 171.679459 -0.105917 0.424990 -5.572171 0.004205 -0.066032 -3.645247 0.708809 -1.357076 13.021967 0.147234 -2.857301 26.991421 -14.817220 1.992078 -0.010197 -60.134155 6.096272 -1.258835 -0.000002 -0.000000 0.000000 4.395900 -0.718194 5.340256 -0.000004 -0.000000 0.000000 0.000002 0.000003 0.000003 0.000000 -0.000003 0.000001 -0.000004 0.000001 0.000000 0.000001 -0.000000 0.000001 0.000006 -0.000002 -0.000002 -0.000001 0.000002 0.000000 -0.000001 -0.000002 -0.000000 -0.000001 0.000001 0.000000 -0.000003 -0.000001 0.000000 -0.000008 0.000001 0.000000 0.000006 0.000001 0.000000 -0.000001 0.000001 0.000001 0.000001 -0.000002 -0.000001 -0.000001 0.000003 0.000001 14.835747 -1.665473 0.022971 60.186035 -5.449462 -1.037620 -0.000001 0.000003 -0.000000 -4.459690 -0.055396 4.999890 -0.000001 0.000006 -0.000003 -0.000001 0.000003 0.000003 -0.000001 -0.000001 -0.000001 -0.000001 -0.000002 -0.000000 0.000001 0.000001 0.000001 -0.000003 -0.000002 -0.000002 -0.000001 0.000002 0.000000 0.000002 -0.000001 0.000000 -0.000006 -0.000002 0.000000 -0.000001 0.000001 0.000000 0.000001 -0.000003 0.000000 -0.000001 0.000001 0.000000 0.000008 0.000001 0.000000 -0.000003 0.000001 0.000000 -0.000005 -0.000000 0.000001 -0.089281 0.112641 8.318679 0.019819 0.226473 10.000154 0.835807 0.668356 -14.154921 0.000000 0.000000 0.000002 1.525963 -0.276429 8.842290 -0.018099 -0.216549 9.557677 -2.386013 -3.496329 -13.881206 -0.000000 -0.000001 0.000002
-0.009955 9.107761 -0.859225 -179.463531 -1.737857 171.679459 -0.104419 0.425529 -5.571992 0.005767 -0.066235 -3.645097 0.709618 -1.357490 13.021632 0.147308 -2.858722 26.990688 -14.817613 1.992529 -0.010267 -60.136593 6.096800 -1.259164 0.000002 -0.000001 0.000000 4.396318 -0.718144 5.340244 -0.000002 -0.000006 -0.000002 0.000005 0.000003 0.000000 -0.000001 -0.000002 -0.000003 0.000000 -0.000003 -0.000002 0.000000 -0.000001 -0.000000 -0.000004 -0.000000 0.000000 -0.000001 -0.000000 -0.000000 0.000003 -0.000000 0.000000 -0.000003 -0.000001 -0.000001 -0.000002 -0.000002 -0.000001 -0.000005 -0.000001 0.000000 -0.000004 -0.000001 0.000000 -0.000003 -0.000002 0.000000 -0.000004 -0.000000 -0.000002 0.000000 -0.000000 0.000000 14.834807 -1.665088 0.023053 60.183846 -5.449332 -1.037474 0.000003 -0.000002 0.000000 -4.459689 -0.055399 4.999890 0.000004 0.000003 -0.000004 -0.000001 0.000003 0.000003 -0.000001 -0.000002 -0.000004 0.000004 0.000005 0.000005 -0.000000 0.000001 -0.000001 0.000000 -0.000001 -0.000004 0.000002 0.000003 0.000003 -0.000000 -0.000001 0.000000 -0.000009 -0.000002 0.000002 -0.000005 0.000004 0.000005 0.000003 0.000001 0.000000 -0.000002 0.000001 -0.000002 0.000007 0.000004 0.000004 0.000005 -0.000000 0.000000 -0.000006 -0.000000 0.000001 -0.089151 0.112410 8.308416 0.019898 0.226919 10.020045 0.835435 0.668812 -14.165971 0.000000 0.000001 -0.000007 1.525580 -0.276249 8.834241 -0.018159 -0.216901 9.573382 -2.383795 -3.496853 -13.889744 0.000000 0.000001 0.000007
-0.010119 9.107374 -0.859275 -179.463531 -1.737857 171.679459 -0.099954 0.427136 -5.571486 0.010427 -0.066840 -3.644600 0.712020 -1.358724 13.020609 0.147526 -2.862955 26.988512 -14.818847 1.993881 -0.010494 -60.143780 6.098330 -1.260126 -0.000001 0.000001 0.000000 4.397557 -0.717995 5.340210 -0.000011 -0.000000 -0.000006 0.000003 0.000001 0.000001 0.000003 -0.000000 -0.000002 -0.000009 -0.000004 -0.000002 0.000003 -0.000000 0.000002 0.000001 -0.000003 -0.000002 -0.000014 -0.000003 -0.000002 0.000009 -0.000003 -0.000001 -0.000001 0.000001 0.000001 -0.000004 -0.000004 -0.000003 -0.000004 -0.000000 0.000000 -0.000003 -0.000001 0.000000 -0.000009 -0.000008 -0.000003 -0.000006 -0.000001 -0.000003 0.000001 0.000002 0.000000 14.832036 -1.663944 0.023285 60.177280 -5.448911 -1.036988 0.000002 0.000001 0.000000 -4.459690 -0.055401 4.999890 -0.000000 -0.000001 0.000002 -0.000002 0.000004 0.000001 0.000001 -0.000000 -0.000005 0.000002 0.000008 0.000003 -0.000002 -0.000000 0.000000 0.000003 -0.000000 -0.000001 -0.000003 0.000009 0.000001 -0.000000 -0.000000 0.000001 -0.000000 -0.000002 -0.000000 -0.000007 0.000009 0.000003 0.000005 -0.000002 0.000000 -0.000004 -0.000000 -0.000000 0.000007 0.000010 0.000002 -0.000001 0.000001 -0.000000 -0.000002 0.000001 0.000001 -0.088772 0.111707 8.277322 0.020137 0.228269 10.080251 0.834329 0.670164 -14.199330 -0.000001 -0.000003 0.000007 1.524437 -0.275707 8.810194 -0.018336 -0.217953 9.620263 -2.377192 -3.498413 -13.915215 0.000000 -0.000001 0.000007
-0.010391 9.106737 -0.859357 -179.463531 -1.737857 171.679459 -0.092564 0.429795 -5.570640 0.018136 -0.067843 -3.643815 0.715983 -1.360762 13.018915 0.147887 -2.869954 26.984947 -14.820848 1.996109 -0.010882 -60.155708 6.100897 -1.261759 0.000002 0.000001 0.000000 4.399611 -0.717753 5.340153 -0.000003 -0.000001 -0.000017 0.000002 0.000001 0.000004 0.000001 -0.000003 -0.000004 0.000002 -0.000006 -0.000004 0.000004 -0.000003 0.000001 -0.000002 0.000002 -0.000001 0.000002 -0.000004 0.000000 0.000002 -0.000000 -0.000002 0.000002 0.000001 0.000000 0.000002 -0.000003 0.000000 -0.000005 -0.000000 0.000000 -0.000001 -0.000000 -0.000001 0.000000 -0.000003 0.000001 -0.000001 -0.000000 -0.000002 0.000002 0.000002 0.000000 14.827412 -1.662043 0.023654 60.166481 -5.448260 -1.036190 0.000003 -0.000002 0.000000 -4.459692 -0.055399 4.999890 -0.000003 0.000007 -0.000001 -0.000003 0.000002 -0.000001 -0.000004 0.000001 -0.000001 0.000002 0.000006 0.000004 -0.000004 0.000004 0.000000 0.000003 -0.000002 0.000000 0.000000 0.000009 0.000002 -0.000003 -0.000001 0.000001 -0.000000 -0.000000 -0.000000 -0.000005 0.000010 0.000004 0.000005 -0.000001 -0.000000 -0.000000 0.000001 -0.000000 0.000005 0.000010 0.000003 0.000001 -0.000001 -0.000000 -0.000001 -0.000000 0.000002 -0.088147 0.110577 8.227165 0.020526 0.230446 10.177422 0.832520 0.672393 -14.253316 -0.000000 -0.000001 0.000002 1.522545 -0.274828 8.771272 -0.018627 -0.219657 9.696187 -2.366335 -3.500965 -13.956575 0.000000 -0.000001 0.000005
-0.010768 9.105856 -0.859472 -179.463531 -1.737857 171.679459 -0.082294 0.433491 -5.569466 0.028850 -0.069237 -3.642706 0.721472 -1.363588 13.016571 0.148389 -2.879670 26.979975 -14.823693 1.999226 -0.011413 -60.172234 6.104441 -1.263998 0.000002 0.000001 0.000000 4.402465 -0.717416 5.340075 -0.000002 0.000003 -0.000001 0.000000 0.000002 0.000001 -0.000002 -0.000002 -0.000002 -0.000000 -0.000000 0.000000 0.000001 -0.000003 0.000001 -0.000000 0.000002 0.000000 -0.000006 -0.000000 0.000000 0.000001 -0.000001 0.000000 0.000003 -0.000001 0.000001 -0.000001 -0.000001 0.000001 -0.000009 -0.000001 -0.000001 0.000007 -0.000002 0.000000 -0.000009 0.000003 0.000003 -0.000003 -0.000000 -0.000001 0.000004 0.000001 -0.000001 14.821013 -1.659407 0.024172 60.151436 -5.447347 -1.035080 -0.000001 0.000001 -0.000000 -4.459689 -0.055399 4.999889 -0.000002 -0.000007 0.000014 -0.000001 -0.000002 0.000001 -0.000000 -0.000001 -0.000001 0.000006 -0.000001 0.000003 -0.000001 0.000001 -0.000000 -0.000002 -0.000001 -0.000004 -0.000000 -0.000002 0.000002 -0.000001 -0.000002 0.000000 -0.000001 -0.000003 0.000000 -0.000005 -0.000000 0.000002 0.000003 -0.000000 -0.000001 0.000004 0.000002 0.000002 0.000013 0.000003 0.000002 -0.000001 -0.000001 0.000000 -0.000006 0.000002 0.000000 -0.087289 0.109020 8.158082 0.021068 0.233444 10.311262 0.830023 0.675477 -14.327714 -0.000000 -0.000001 0.000001 1.519911 -0.273618 8.717624 -0.019030 -0.222005 9.800847 -2.351298 -3.504472 -14.013629 0.000000 -0.000000 -0.000003
-0.011250 9.104738 -0.859617 -179.463531 -1.737857 171.679459 -0.069186 0.438208 -5.567988 0.042527 -0.071017 -3.641283 0.728453 -1.367189 13.013590 0.149028 -2.892056 26.973642 -14.827267 2.003187 -0.012088 -60.193386 6.108974 -1.266887 -0.000005 -0.000001 0.000000 4.406104 -0.716980 5.339978 0.000002 -0.000000 -0.000001 0.000004 0.000005 0.000004 -0.000001 -0.000003 -0.000003 0.000001 0.000001 -0.000001 0.000002 -0.000001 0.000002 -0.000003 0.000001 -0.000002 0.000009 -0.000001 -0.000003 0.000003 -0.000000 0.000001 -0.000004 0.000001 -0.000001 0.000008 0.000002 -0.000000 -0.000005 -0.000000 0.000000 0.000000 -0.000001 0.000000 -0.000001 0.000002 0.000000 0.000002 -0.000003 -0.000001 -0.000003 0.000003 0.000000 14.812869 -1.656053 0.024838 60.132236 -5.446198 -1.033672 0.000001 0.000001 0.000000 -4.459692 -0.055397 4.999890 -0.000002 -0.000007 -0.000001 -0.000003 -0.000003 0.000001 0.000000 -0.000003 0.000001 0.000000 -0.000001 0.000003 -0.000000 -0.000002 0.000001 0.000002 -0.000002 0.000002 0.000002 0.000001 -0.000000 -0.000005 -0.000000 0.000001 -0.000003 -0.000003 0.000000 -0.000010 0.000003 -0.000000 0.000002 0.000002 0.000001 -0.000001 0.000001 -0.000001 0.000000 0.000009 -0.000002 0.000004 0.000001 0.000001 -0.000006 -0.000000 -0.000000 -0.086204 0.107079 8.072053 0.021753 0.237177 10.478003 0.826871 0.679405 -14.420657 0.000000 0.000001 -0.000002 1.516542 -0.272123 8.650881 -0.019538 -0.224926 9.931120 -2.332241 -3.508862 -14.084860 0.000000 -0.000001 0.000000
